<?xml version="1.0" encoding="utf-8"?>
<!-- Generator: Adobe Illustrator 14.0.0, SVG Export Plug-In . SVG Version: 6.00 Build 43363)  -->
<!DOCTYPE svg PUBLIC "-//W3C//DTD SVG 1.1//EN" "http://www.w3.org/Graphics/SVG/1.1/DTD/svg11.dtd">
<svg version="1.1" id="Layer_1" xmlns="http://www.w3.org/2000/svg" xmlns:xlink="http://www.w3.org/1999/xlink" x="0px" y="0px"
	 width="25.772px" height="36px" viewBox="110.28 43.265 25.772 36" enable-background="new 110.28 43.265 25.772 36"
	 xml:space="preserve">
<polygon fill="#FFFFFF" points="136.052,48.293 131.023,43.265 110.28,43.265 110.28,79.265 136.052,79.265 "/>
<polyline fill="#FFFFFF" points="110.28,43.265 110.28,79.265 136.052,79.265 "/>
<path d="M131.023,43.265H110.28v36h25.772V48.293L131.023,43.265z M134.979,48.306l-4.018-0.001v-4.016L134.979,48.306z
	 M111.114,78.469V44.098h19.014v5.041h5.091v29.33L111.114,78.469L111.114,78.469z"/>
<path fill="#ED1C24" d="M125.391,60.057l-0.003-1.141c0-2.889-5.266-3.413-5.319-3.418l-0.231-0.02l0.007,3.523h-2.649v14.052
	h12.345V60.056L125.391,60.057z M120.707,56.457c1.212,0.218,3.812,0.87,3.812,2.46v7.901c-1.104-1.056-2.978-1.462-3.801-1.717
	L120.707,56.457z M120.002,65.772c0.185,0.052,4.516,1.041,4.516,2.794c0,1.076-3.328,2.547-6.454,3.473V59.863h1.781l-0.001,5.706
	l0.005,0.16L120.002,65.772z M120.357,72.195c3.339-1.204,5.031-2.424,5.031-3.628v-7.65l3.281,0.002v11.276H120.357z"/>
</svg>
