<?xml version="1.0" encoding="utf-8"?>
<!-- Generator: Adobe Illustrator 14.0.0, SVG Export Plug-In . SVG Version: 6.00 Build 43363)  -->
<!DOCTYPE svg PUBLIC "-//W3C//DTD SVG 1.1//EN" "http://www.w3.org/Graphics/SVG/1.1/DTD/svg11.dtd">
<svg version="1.1" id="Layer_1" xmlns="http://www.w3.org/2000/svg" xmlns:xlink="http://www.w3.org/1999/xlink" x="0px" y="0px"
	 width="126.009px" height="132.289px" viewBox="0 0 126.009 132.289" enable-background="new 0 0 126.009 132.289"
	 xml:space="preserve">
<g>
	<path fill-rule="evenodd" clip-rule="evenodd" fill="#828282" d="M114,31.903c-3.333,0-6.667,0-10,0c0-2,0-4.75,0-6.75
		c0.067,0.075,12.321,0.175,18.25,0.25c0.501,12.64,0.411,22.254-8.75,26.75c-5.172,4.35-18.717,2.59-20.5,0.75
		c-2.098-1.628-4.92-4.197-7.5-9c-1.24-2.971-1.676-6.139-1.837-17.028C83.539,18.469,85.051,9.652,87,7.153
		c3.002-3.354,4.344-4.419,8-6.25c10.639-1.946,13.736-0.594,20.171,2.595c2.409,1.195,4.499,5.662,5.329,7.405
		c-1.172,1.151-5.086,2.589-6.25,3.75c-1.112-5.825-12.371-13.091-20-3c-2.457,2.624-2.244,7.852-2.219,15.938
		C92.077,42.039,93.726,44.702,98,45.903c5.213,2.701,12.898,0.573,14-3C114.022,40.38,114.096,36.693,114,31.903z"/>
	<path fill-rule="evenodd" clip-rule="evenodd" fill="#828282" d="M89,126.903c0,1.666,0,3.334,0,5
		c-25.59,2.887-28.716-10.954-39.413-24.065c-5.5-6.742-8.328-14.592-12.89-20.141c-0.762-0.926-5.99-0.8-11.697-0.794
		c0.279,9.896-1.984,38.061,3.25,37.75c4.945,1.743,6.969,1.528,11.75,1.75c0,1.333,0,3.167,0,4.5c-13.332,0-26.668,0-40,0
		c0-1.333,0-3.167,0-4.5c6.729-1.108,12.676-1.018,12.25-9.5c0.416-5.03,0.163-15.326,0.163-21.25
		c0-17.977,0.18-31.209-0.142-51.438C11.647,41.521,9.746,38.896,7,37.903c-2.333-0.333-4.483-0.319-6.816-0.652
		C0.184,35.917,0,33.736,0,32.403c51.393,0.927,56.843-3.513,68.989,12.469c6.981,12.599,2.239,26.025-5.783,33.271
		c-4.34,3.92-8.792,6.209-13.206,7.239c3.732,4.816,10.093,16.462,18.452,26.598C77.324,122.737,81.037,126.239,89,126.903z"/>
	<path fill-rule="evenodd" clip-rule="evenodd" fill="#FFFFFF" d="M25,39.903c0,12.999,0,26.001,0,39
		c7.049,0.54,10.614,0.323,16,0.25c2.816,0.108,7.533-1.663,9-2.75c2.574-2.257,4.806-4.276,7.5-9.5
		c3.98-14.432-1.396-22.624-10.791-25.85C41.125,39.286,33.784,40.154,25,39.903z"/>
</g>
</svg>
