<?xml version="1.0" encoding="utf-8"?>
<!-- Generator: Adobe Illustrator 14.0.0, SVG Export Plug-In . SVG Version: 6.00 Build 43363)  -->
<!DOCTYPE svg PUBLIC "-//W3C//DTD SVG 1.1//EN" "http://www.w3.org/Graphics/SVG/1.1/DTD/svg11.dtd">
<svg version="1.1" id="Layer_1" xmlns="http://www.w3.org/2000/svg" xmlns:xlink="http://www.w3.org/1999/xlink" x="0px" y="0px"
	 width="25.772px" height="36px" viewBox="110.28 43.265 25.772 36" enable-background="new 110.28 43.265 25.772 36"
	 xml:space="preserve">
<polygon fill="#FFFFFF" points="136.052,48.293 131.023,43.265 110.28,43.265 110.28,79.265 136.052,79.265 "/>
<path d="M131.023,43.265H110.28v36h25.772V48.293L131.023,43.265z M134.979,48.306l-4.018-0.001v-4.016L134.979,48.306z
	 M111.114,78.469V44.098h19.014v5.041h5.091v29.33L111.114,78.469L111.114,78.469z"/>
<path fill="#0D84FC" d="M120.502,57.949c-2.978,0.8-5.269,3.542-5.859,6.51c-0.633,3.183,0.658,6.527,3.239,8.481
	c2.385,1.805,5.594,2.229,8.367,1.108c2.619-1.058,4.573-3.418,5.163-6.175c0.58-2.716-0.234-5.614-2.142-7.632
	C127.045,57.889,123.594,56.987,120.502,57.949z M115.382,64.997c0.388-2.619,2.08-4.764,4.43-5.92
	c-0.64,1.543-0.76,3.174-0.575,4.825c-1.293,0.414-2.585,0.83-3.877,1.245L115.382,64.997z M116.712,70.461l-0.067,0.022
	c-0.896-1.319-1.367-2.873-1.349-4.469c1.354-0.435,2.707-0.87,4.06-1.304c0.274,1.538,0.748,3.031,1.387,4.456
	C119.399,69.599,118.056,70.03,116.712,70.461z M120.129,64.463c1.497-0.48,2.994-0.962,4.491-1.442
	c0.687,1.399,1.173,2.899,1.475,4.428c-1.528,0.491-3.056,0.982-4.584,1.472C120.866,67.503,120.389,66,120.129,64.463z
	 M124.225,73.77c-2.645,0.41-5.298-0.616-7.061-2.606c1.312-0.421,2.623-0.842,3.935-1.264c0.812,1.543,1.884,2.906,3.376,3.831
	L124.225,73.77z M125.492,73.243l-0.042,0.066c-1.636-0.636-2.777-2.164-3.582-3.656c1.454-0.467,2.908-0.934,4.362-1.4
	C126.441,69.9,126.417,71.792,125.492,73.243z M130.747,66.941c-0.288,2.655-1.917,4.87-4.247,6.114
	c0.659-1.613,0.737-3.334,0.5-5.05c1.254-0.402,2.508-0.806,3.763-1.208L130.747,66.941z M129.284,61.523
	c0.943,1.287,1.465,2.824,1.505,4.418c-1.309,0.42-2.617,0.841-3.926,1.261c-0.31-1.531-0.794-3.021-1.466-4.431
	C126.692,62.355,127.988,61.939,129.284,61.523z M122.029,58.438c2.501-0.331,4.963,0.608,6.696,2.417
	c-1.234,0.397-2.47,0.792-3.705,1.19c-0.802-1.442-1.847-2.687-3.248-3.573L122.029,58.438z M120.815,58.892
	c1.512,0.651,2.61,2.019,3.417,3.406c-1.404,0.451-2.808,0.902-4.212,1.353C119.864,62.055,119.953,60.294,120.815,58.892z"/>
</svg>
